<svg width="71" height="19" viewBox="0 0 71 19" fill="none" xmlns="http://www.w3.org/2000/svg">
<path d="M0.806631 15V2.48499H6.23306C7.18635 2.48499 7.98687 2.61332 8.63462 2.86998C9.28645 3.12663 9.77735 3.48921 10.1073 3.95771C10.4414 4.4262 10.6084 4.97822 10.6084 5.61374C10.6084 6.07409 10.5066 6.49371 10.3029 6.87258C10.1033 7.25145 9.82216 7.56921 9.45959 7.82587C9.09701 8.07845 8.67332 8.25363 8.18853 8.3514V8.47362C8.72629 8.49399 9.21515 8.63046 9.65513 8.88305C10.0951 9.13155 10.4455 9.4758 10.7062 9.91578C10.9669 10.3517 11.0973 10.865 11.0973 11.4557C11.0973 12.1401 10.918 12.7492 10.5595 13.2829C10.2051 13.8165 9.69995 14.2361 9.04405 14.5417C8.38815 14.8472 7.60596 15 6.69748 15H0.806631ZM4.20426 12.2868H5.79308C6.36343 12.2868 6.79118 12.1809 7.07636 11.969C7.36153 11.7531 7.50412 11.4353 7.50412 11.0157C7.50412 10.7224 7.4369 10.4739 7.30246 10.2702C7.16802 10.0665 6.97655 9.9117 6.72804 9.80578C6.48361 9.69986 6.18825 9.6469 5.84197 9.6469H4.20426V12.2868ZM4.20426 7.54477H5.59753C5.89493 7.54477 6.15769 7.49792 6.38583 7.40422C6.61397 7.31052 6.79118 7.17608 6.91748 7.00091C7.04784 6.82165 7.11302 6.6037 7.11302 6.34704C7.11302 5.96002 6.97451 5.66467 6.69748 5.46097C6.42046 5.2532 6.0701 5.14932 5.64642 5.14932H4.20426V7.54477ZM11.9938 15V2.48499H17.3958C18.3247 2.48499 19.1374 2.65406 19.8341 2.99219C20.5307 3.33033 21.0725 3.81716 21.4595 4.45268C21.8466 5.08821 22.0401 5.85003 22.0401 6.73814C22.0401 7.6344 21.8404 8.3901 21.4412 9.00526C21.046 9.62042 20.49 10.0848 19.7729 10.3985C19.06 10.7122 18.2269 10.8691 17.2736 10.8691H14.0471V8.22919H16.5892C16.9884 8.22919 17.3286 8.1803 17.6097 8.08252C17.8949 7.98068 18.1128 7.81976 18.2636 7.59977C18.4184 7.37978 18.4958 7.09257 18.4958 6.73814C18.4958 6.37964 18.4184 6.08835 18.2636 5.86429C18.1128 5.63615 17.8949 5.46912 17.6097 5.3632C17.3286 5.2532 16.9884 5.19821 16.5892 5.19821H15.3915V15H11.9938ZM19.3269 9.25581L22.4556 15H18.7647L15.7092 9.25581H19.3269ZM26.432 15H22.7655L26.8964 2.48499H31.5407L35.6716 15H32.0051L29.2674 5.93151H29.1697L26.432 15ZM25.7476 10.0624H32.6406V12.6045H25.7476V10.0624ZM47.3981 2.48499V15H44.5627L40.0406 8.42473H39.9673V15H36.5697V2.48499H39.454L43.9027 9.03582H44.0005V2.48499H47.3981ZM53.5133 15H48.698V2.48499H53.4644C54.7518 2.48499 55.864 2.73554 56.8009 3.23663C57.742 3.73364 58.4672 4.45065 58.9764 5.38764C59.4897 6.32056 59.7464 7.43885 59.7464 8.7425C59.7464 10.0461 59.4918 11.1665 58.9825 12.1035C58.4733 13.0364 57.7522 13.7534 56.8193 14.2545C55.8864 14.7515 54.7844 15 53.5133 15ZM52.0956 12.1157H53.3911C54.0103 12.1157 54.5379 12.0159 54.9738 11.8163C55.4138 11.6166 55.7478 11.2724 55.976 10.7835C56.2082 10.2947 56.3243 9.61431 56.3243 8.7425C56.3243 7.87068 56.2062 7.19034 55.9699 6.70147C55.7377 6.21261 55.3955 5.86836 54.9433 5.66874C54.4951 5.46912 53.9451 5.36931 53.2933 5.36931H52.0956V12.1157Z" fill="black"/>
<path d="M61.1548 1.74088V0.82833H64.7806V1.74088H63.5258V5H62.4096V1.74088H61.1548ZM65.1044 0.82833H66.5139L67.4835 3.19119H67.5324L68.502 0.82833H69.9116V5H68.8035V2.58825H68.7709L67.842 4.96741H67.1739L66.2451 2.57196H66.2125V5H65.1044V0.82833Z" fill="black"/>
</svg>
